<svg width="250pt" height="44pt" viewBox="0 0 250 44" xmlns="http://www.w3.org/2000/svg"><g id="fontsvg1638500549079" stroke-linecap="round" fill-rule="evenodd" fill="#ffe600"><path d="M 85.266 22.413 L 85.186 22.533 A 13.56 13.56 0 0 1 85.262 22.458 Q 85.653 22.073 85.506 22.293 Q 83.906 24.573 83.586 25.213 Q 83.266 25.853 82.906 26.633 Q 82.546 27.413 82.066 28.433 A 25.175 25.175 0 0 0 81.734 29.167 Q 81.56 29.57 81.423 29.932 A 13.585 13.585 0 0 0 81.306 30.253 Q 81.026 31.053 80.626 31.813 A 4.972 4.972 0 0 1 77.005 34.322 Q 75.805 34.532 74.306 34.333 A 6.247 6.247 0 0 1 73.52 34.186 Q 73.111 34.081 72.769 33.923 A 3.673 3.673 0 0 1 72.666 33.873 A 1.351 1.351 0 0 1 72.387 33.691 Q 72.015 33.371 72.106 32.853 A 13.463 13.463 0 0 1 72.116 32.803 Q 72.444 31.195 73.586 27.533 A 464.392 464.392 0 0 0 74.376 24.958 Q 75.949 19.776 76.306 18.053 Q 76.586 17.333 76.806 16.573 A 14.277 14.277 0 0 1 77.002 15.947 Q 77.131 15.568 77.266 15.253 A 3.01 3.01 0 0 1 77.44 14.859 Q 77.844 14.105 78.483 14.27 A 1.222 1.222 0 0 1 78.666 14.333 Q 78.741 13.625 79.51 13.16 A 3.016 3.016 0 0 1 79.626 13.093 Q 80.506 12.613 81.586 12.613 Q 82.666 12.613 83.686 13.113 A 2.562 2.562 0 0 1 84.966 14.524 A 3.513 3.513 0 0 1 85.066 14.813 A 13.808 13.808 0 0 1 86.631 13.623 Q 89.124 12.013 91.266 12.533 A 2.531 2.531 0 0 1 92.525 13.215 A 3.496 3.496 0 0 1 92.906 13.653 Q 94.946 11.693 97.426 11.093 Q 99.506 11.013 100.804 11.68 A 3.667 3.667 0 0 1 101.906 12.533 A 6.315 6.315 0 0 1 102.2 12.849 A 7.33 7.33 0 0 1 102.306 12.973 A 13.843 13.843 0 0 1 102.499 13.184 Q 102.793 13.512 102.899 13.684 A 0.599 0.599 0 0 1 102.946 13.773 Q 103.666 14.893 103.346 18.933 Q 102.906 24.173 101.346 29.453 Q 100.516 32.102 99.842 32.211 A 0.37 0.37 0 0 1 99.826 32.213 Q 99.432 32.292 99.097 32.216 A 1.453 1.453 0 0 1 99.086 32.213 A 5.134 5.134 0 0 0 98.813 32.157 Q 98.636 32.125 98.486 32.113 Q 98.25 32.095 98.195 32.489 A 1.547 1.547 0 0 0 98.186 32.573 A 2.563 2.563 0 0 1 96.7 33.509 A 4.094 4.094 0 0 1 95.746 33.613 Q 94.146 33.613 93.026 32.613 A 3.139 3.139 0 0 1 92.495 32.053 Q 91.884 31.208 92.166 30.153 A 62.365 62.365 0 0 1 92.908 27.607 A 69.133 69.133 0 0 1 93.026 27.233 Q 93.506 25.733 94.066 24.133 Q 95.026 21.333 96.186 18.293 Q 95.36 19.238 93.953 21.827 A 64.145 64.145 0 0 0 93.906 21.913 A 209.964 209.964 0 0 1 93.404 22.836 Q 92.478 24.525 92.157 25.017 A 3.405 3.405 0 0 1 92.106 25.093 Q 91.585 26.135 91.205 26.836 A 26.69 26.69 0 0 1 90.986 27.233 Q 90.546 28.013 89.806 28.473 A 5.606 5.606 0 0 1 89.268 28.771 Q 88.996 28.9 88.743 28.978 A 2.848 2.848 0 0 1 88.446 29.053 A 3.897 3.897 0 0 1 87.878 29.122 Q 87.564 29.136 87.266 29.093 A 3.441 3.441 0 0 1 86.482 28.885 A 2.221 2.221 0 0 1 85.386 27.973 L 85.146 27.333 Q 85.026 27.013 84.946 26.453 Q 84.826 25.213 85.266 22.413 Z M 246.866 0.333 A 5.663 5.663 0 0 0 246.262 0.144 Q 244.999 -0.175 243.866 0.213 A 31.056 31.056 0 0 0 241.249 1.349 A 24.994 24.994 0 0 0 232.346 8.493 A 24.724 24.724 0 0 0 231.936 9.036 Q 228.328 13.948 226.586 21.333 Q 225.346 27.253 227.226 30.693 Q 229.226 34.333 234.826 34.653 Q 236.866 34.653 238.582 34.234 A 10.56 10.56 0 0 0 243.026 32.013 A 10.378 10.378 0 0 0 244.416 30.525 A 12.945 12.945 0 0 0 245.726 28.413 Q 246.345 27.176 246.767 25.647 A 22.344 22.344 0 0 0 247.306 23.093 Q 247.571 21.373 247.094 19.823 A 7.666 7.666 0 0 0 245.826 17.413 Q 244.986 16.293 243.806 15.613 A 6.247 6.247 0 0 0 243.695 15.551 A 5.347 5.347 0 0 0 241.346 14.873 Q 240.633 14.84 239.864 14.993 A 8.288 8.288 0 0 0 238.606 15.353 A 8.554 8.554 0 0 0 238.515 15.388 A 7.521 7.521 0 0 0 236.066 16.893 Q 237.706 13.773 239.666 11.413 Q 240.746 10.173 241.966 9.113 Q 243.186 8.053 244.226 7.533 Q 245.266 7.013 246.186 6.513 A 13.668 13.668 0 0 1 246.442 6.378 Q 247.213 5.98 247.866 5.773 A 10.433 10.433 0 0 0 248.21 5.574 Q 249.519 4.78 249.519 4.173 A 0.549 0.549 0 0 0 249.506 4.053 A 0.598 0.598 0 0 0 249.473 3.924 Q 249.428 3.809 249.335 3.704 A 1.094 1.094 0 0 0 249.166 3.553 A 14.171 14.171 0 0 1 248.996 3.426 A 16.552 16.552 0 0 1 248.546 3.073 A 3.284 3.284 0 0 1 248.289 2.842 A 2.494 2.494 0 0 1 248.026 2.533 Q 247.863 2.305 247.966 1.971 A 1.311 1.311 0 0 1 248.026 1.813 Q 248.361 1.042 247.319 0.524 A 4.231 4.231 0 0 0 246.866 0.333 Z M 14.586 33.653 Q 13.746 33.893 12.986 33.913 Q 12.226 33.933 11.446 33.973 Q 10.849 34.004 9.912 34.011 A 79.245 79.245 0 0 1 9.306 34.013 Q 8.265 34.013 6.426 33.966 A 308.701 308.701 0 0 1 5.226 33.933 A 20.515 20.515 0 0 1 3.946 33.973 Q 3.306 33.973 2.746 33.733 Q 1.506 33.213 1.066 31.333 A 7.579 7.579 0 0 0 0.962 30.926 Q 0.846 30.521 0.713 30.268 A 1.464 1.464 0 0 0 0.606 30.093 Q 0.346 29.733 0.186 29.413 Q -0.213 28.775 0.244 27.301 A 8.319 8.319 0 0 1 0.246 27.293 A 141.133 141.133 0 0 1 0.492 26.51 Q 0.88 25.288 1.409 23.685 A 387.347 387.347 0 0 1 1.426 23.633 Q 2.146 21.453 3.066 19.013 Q 5.178 13.342 6.87 9.965 A 42.862 42.862 0 0 1 6.946 9.813 A 4960.458 4960.458 0 0 0 7.431 8.73 Q 7.622 8.301 7.796 7.912 A 2715.043 2715.043 0 0 0 8.126 7.173 A 83.711 83.711 0 0 1 8.487 6.376 Q 8.776 5.746 9.026 5.233 A 78.867 78.867 0 0 0 9.12 5.041 Q 9.426 4.408 9.426 4.373 A 2.515 2.515 0 0 1 10.066 3.28 Q 10.714 2.6 11.951 2.045 A 11.616 11.616 0 0 1 12.506 1.813 A 10.416 10.416 0 0 1 14 1.315 Q 15.732 0.887 17.226 1.253 Q 19.516 1.835 19.32 4.225 A 5.128 5.128 0 0 1 19.306 4.373 A 26.517 26.517 0 0 1 17.848 8.868 A 29.489 29.489 0 0 1 17.646 9.333 A 93.427 93.427 0 0 1 16.154 12.527 A 111.764 111.764 0 0 1 15.146 14.533 Q 13.746 17.253 12.106 20.293 Q 10.466 23.333 8.866 26.893 A 0.218 0.218 0 0 0 8.859 26.939 Q 8.855 27.071 9.026 27.173 A 3.74 3.74 0 0 0 9.372 27.128 Q 9.825 27.05 10.486 26.853 A 25.957 25.957 0 0 1 12.192 26.409 A 28.496 28.496 0 0 1 12.446 26.353 Q 13.466 26.133 14.466 26.133 A 3.184 3.184 0 0 1 15.266 26.229 A 2.438 2.438 0 0 1 16.146 26.653 A 2.316 2.316 0 0 0 16.142 26.782 Q 16.142 27.023 16.196 27.228 A 1.268 1.268 0 0 0 16.506 27.793 Q 16.906 28.213 17.306 28.613 Q 18.306 29.653 17.466 31.373 Q 16.666 33.053 14.586 33.653 Z M 52.097 34.29 A 10.354 10.354 0 0 0 54.826 32.693 A 44.513 44.513 0 0 1 54.941 32.602 Q 55.299 32.317 55.746 31.973 A 14.653 14.653 0 0 0 55.864 31.882 Q 57.763 30.401 57.763 29.364 A 1.082 1.082 0 0 0 57.746 29.173 Q 58.906 25.733 57.266 22.933 A 9.016 9.016 0 0 0 56.179 21.477 Q 54.974 20.142 52.986 18.773 Q 53.195 18.684 53.248 18.617 A 0.071 0.071 0 0 0 53.266 18.573 A 0.097 0.097 0 0 1 53.262 18.545 Q 53.262 18.157 56.466 17.693 A 7.417 7.417 0 0 0 57.301 17.428 Q 57.899 17.196 58.332 16.884 A 2.566 2.566 0 0 0 59.426 15.213 A 2.828 2.828 0 0 0 59.457 14.793 Q 59.457 14.55 59.416 14.303 A 3.48 3.48 0 0 0 59.206 13.573 A 4.669 4.669 0 0 0 59.008 13.147 A 3.812 3.812 0 0 0 58.286 12.173 Q 57.869 11.771 57.059 11.616 A 5.441 5.441 0 0 0 56.366 11.533 A 10.881 10.881 0 0 0 55.718 11.515 Q 55.21 11.515 54.662 11.558 A 17.226 17.226 0 0 0 53.366 11.713 Q 51.706 11.973 50.026 12.533 A 19.361 19.361 0 0 0 49.709 12.642 Q 48.764 12.975 48.113 13.322 A 5.481 5.481 0 0 0 47.506 13.693 Q 46.981 14.068 46.565 14.412 A 10.664 10.664 0 0 0 46.106 14.813 A 11.573 11.573 0 0 0 45.791 15.115 Q 44.179 16.716 44.179 18.079 A 2.272 2.272 0 0 0 44.186 18.253 A 3.219 3.219 0 0 0 44.039 18.725 A 3.76 3.76 0 0 0 43.946 19.573 Q 43.946 20.293 44.146 20.973 A 7.005 7.005 0 0 0 44.241 21.301 Q 44.473 22.037 44.806 22.461 A 1.575 1.575 0 0 0 45.306 22.893 A 2.525 2.525 0 0 0 45.407 23.042 Q 46.043 23.916 47.666 24.653 Q 48.386 24.973 49.086 25.293 A 5.258 5.258 0 0 1 49.618 25.573 A 4.061 4.061 0 0 1 50.266 26.053 A 0.856 0.856 0 0 1 49.835 26.596 Q 48.58 27.385 43.773 27.312 A 62.694 62.694 0 0 1 42.946 27.293 A 0.971 0.971 0 0 0 42.777 27.307 A 0.654 0.654 0 0 0 42.306 27.633 Q 42.106 27.973 41.946 28.353 A 3.759 3.759 0 0 1 41.86 28.544 A 3.197 3.197 0 0 1 41.566 29.033 Q 41.346 29.333 40.866 29.293 Q 40.146 29.133 39.646 29.453 Q 39.146 29.773 38.946 30.333 A 2.285 2.285 0 0 0 38.851 30.981 Q 38.851 32.017 39.826 33.053 Q 40.906 34.253 42.786 34.813 Q 44.541 35.336 46.539 35.336 A 15.487 15.487 0 0 0 46.826 35.333 Q 48.986 35.293 51.126 34.633 A 12.423 12.423 0 0 0 52.097 34.29 Z M 205.217 34.29 A 10.354 10.354 0 0 0 207.946 32.693 A 44.513 44.513 0 0 1 208.061 32.602 Q 208.419 32.317 208.866 31.973 A 14.653 14.653 0 0 0 208.984 31.882 Q 210.883 30.401 210.883 29.364 A 1.082 1.082 0 0 0 210.866 29.173 Q 212.026 25.733 210.386 22.933 A 9.016 9.016 0 0 0 209.299 21.477 Q 208.094 20.142 206.106 18.773 Q 206.315 18.684 206.368 18.617 A 0.071 0.071 0 0 0 206.386 18.573 A 0.097 0.097 0 0 1 206.382 18.545 Q 206.382 18.157 209.586 17.693 A 7.417 7.417 0 0 0 210.421 17.428 Q 211.019 17.196 211.452 16.884 A 2.566 2.566 0 0 0 212.546 15.213 A 2.828 2.828 0 0 0 212.577 14.793 Q 212.577 14.55 212.536 14.303 A 3.48 3.48 0 0 0 212.326 13.573 A 4.669 4.669 0 0 0 212.128 13.147 A 3.812 3.812 0 0 0 211.406 12.173 Q 210.989 11.771 210.179 11.616 A 5.441 5.441 0 0 0 209.486 11.533 A 10.881 10.881 0 0 0 208.838 11.515 Q 208.33 11.515 207.782 11.558 A 17.226 17.226 0 0 0 206.486 11.713 Q 204.826 11.973 203.146 12.533 A 19.361 19.361 0 0 0 202.829 12.642 Q 201.884 12.975 201.233 13.322 A 5.481 5.481 0 0 0 200.626 13.693 Q 200.101 14.068 199.685 14.412 A 10.664 10.664 0 0 0 199.226 14.813 A 11.573 11.573 0 0 0 198.911 15.115 Q 197.299 16.716 197.299 18.079 A 2.272 2.272 0 0 0 197.306 18.253 A 3.219 3.219 0 0 0 197.159 18.725 A 3.76 3.76 0 0 0 197.066 19.573 Q 197.066 20.293 197.266 20.973 A 7.005 7.005 0 0 0 197.361 21.301 Q 197.593 22.037 197.926 22.461 A 1.575 1.575 0 0 0 198.426 22.893 A 2.525 2.525 0 0 0 198.527 23.042 Q 199.163 23.916 200.786 24.653 Q 201.506 24.973 202.206 25.293 A 5.258 5.258 0 0 1 202.738 25.573 A 4.061 4.061 0 0 1 203.386 26.053 A 0.856 0.856 0 0 1 202.955 26.596 Q 201.7 27.385 196.893 27.312 A 62.694 62.694 0 0 1 196.066 27.293 A 0.971 0.971 0 0 0 195.897 27.307 A 0.654 0.654 0 0 0 195.426 27.633 Q 195.226 27.973 195.066 28.353 A 3.759 3.759 0 0 1 194.98 28.544 A 3.197 3.197 0 0 1 194.686 29.033 Q 194.466 29.333 193.986 29.293 Q 193.266 29.133 192.766 29.453 Q 192.266 29.773 192.066 30.333 A 2.285 2.285 0 0 0 191.971 30.981 Q 191.971 32.017 192.946 33.053 Q 194.026 34.253 195.906 34.813 Q 197.661 35.336 199.659 35.336 A 15.487 15.487 0 0 0 199.946 35.333 Q 202.106 35.293 204.246 34.633 A 12.423 12.423 0 0 0 205.217 34.29 Z M 121.466 37.533 L 122.346 36.493 Q 123.026 35.253 123.466 34.193 Q 123.906 33.133 124.386 31.953 A 57.643 57.643 0 0 0 125.165 29.934 A 51.976 51.976 0 0 0 125.266 29.653 A 41.892 41.892 0 0 0 125.61 28.652 Q 125.788 28.111 125.926 27.633 Q 126.186 26.733 126.426 25.873 A 46.382 46.382 0 0 1 126.556 25.417 Q 126.759 24.717 127.047 23.795 A 129.068 129.068 0 0 1 127.066 23.733 Q 127.935 20.295 128.483 18.963 A 7.245 7.245 0 0 1 128.546 18.813 A 9.582 9.582 0 0 1 130.058 16.514 A 7.975 7.975 0 0 1 132.146 14.853 A 4.195 4.195 0 0 1 132.887 14.352 Q 133.489 14.038 134.106 14.013 A 7.585 7.585 0 0 1 134.27 14.008 Q 135.307 13.983 135.704 14.279 A 0.575 0.575 0 0 1 135.946 14.693 Q 136.007 15.269 136.17 15.546 A 0.644 0.644 0 0 0 136.286 15.693 Q 136.546 15.933 136.846 16.113 Q 137.146 16.293 137.406 16.633 A 1.041 1.041 0 0 1 137.538 16.874 Q 137.689 17.243 137.746 17.933 Q 132.026 39.013 125.386 42.173 A 10.023 10.023 0 0 1 121.196 43.098 A 10.717 10.717 0 0 1 118.946 42.853 A 9.491 9.491 0 0 1 117.048 42.226 Q 115.882 41.687 115.099 40.856 A 5.367 5.367 0 0 1 114.426 39.973 Q 113.138 37.934 114.762 35.798 A 7.201 7.201 0 0 1 115.186 35.293 A 2.377 2.377 0 0 1 115.811 34.759 Q 116.698 34.247 117.948 34.711 A 4.734 4.734 0 0 1 118.106 34.773 Q 118.519 34.911 118.842 35.048 A 6.75 6.75 0 0 1 118.946 35.093 Q 119.48 35.47 119.705 35.773 A 1.077 1.077 0 0 1 119.806 35.933 A 7.764 7.764 0 0 1 119.93 36.192 Q 119.988 36.321 120.035 36.438 A 4.111 4.111 0 0 1 120.086 36.573 A 2.117 2.117 0 0 0 120.181 36.795 Q 120.237 36.91 120.313 37.036 A 4.562 4.562 0 0 0 120.426 37.213 A 3.062 3.062 0 0 1 120.617 37.333 Q 120.844 37.486 121.146 37.733 Q 121.386 37.613 121.466 37.534 Z M 116.766 26.217 A 9.834 9.834 0 0 0 117.746 25.813 A 14.299 14.299 0 0 0 118.615 25.334 Q 119.296 24.925 119.836 24.484 A 6.907 6.907 0 0 0 120.906 23.413 Q 121.946 22.053 122.586 18.773 A 16.223 16.223 0 0 0 122.594 18.714 Q 122.84 16.947 122.609 15.736 A 4.274 4.274 0 0 0 122.346 14.853 Q 121.146 12.213 118.026 12.133 A 13.721 13.721 0 0 0 117.65 12.128 A 13.018 13.018 0 0 0 112.426 13.213 Q 110.106 14.213 108.226 16.453 Q 106.977 17.933 106.116 19.306 A 15.821 15.821 0 0 0 105.066 21.253 Q 102.866 26.053 103.906 29.653 A 6.69 6.69 0 0 0 103.966 29.848 Q 104.439 31.289 105.476 32.2 A 5.67 5.67 0 0 0 107.426 33.293 A 5.935 5.935 0 0 0 108.35 33.612 Q 109.791 33.988 111.928 33.91 A 23.835 23.835 0 0 0 112.906 33.853 Q 114.506 33.733 116.106 33.413 A 19.203 19.203 0 0 0 116.206 33.393 Q 117.744 33.077 118.906 32.573 A 7.052 7.052 0 0 0 119.391 32.342 Q 119.771 32.141 120.073 31.915 A 3.391 3.391 0 0 0 120.686 31.333 Q 121.266 30.613 120.886 29.813 A 9.704 9.704 0 0 0 120.752 29.542 Q 120.545 29.139 120.402 28.978 A 0.438 0.438 0 0 0 120.306 28.893 A 1.149 1.149 0 0 0 120.218 28.845 Q 120.15 28.813 120.088 28.795 A 0.517 0.517 0 0 0 119.946 28.773 A 0.485 0.485 0 0 1 119.848 28.763 Q 119.785 28.75 119.716 28.72 A 1.072 1.072 0 0 1 119.586 28.653 A 0.387 0.387 0 0 1 119.51 28.59 Q 119.37 28.446 119.182 28.062 A 7.42 7.42 0 0 1 119.066 27.813 A 3.087 3.087 0 0 0 118.577 27.45 Q 118.04 27.131 117.461 27.131 A 2.127 2.127 0 0 0 117.366 27.133 A 6.463 6.463 0 0 0 116.857 27.176 A 7.354 7.354 0 0 0 115.526 27.473 Q 114.586 27.773 113.726 28.113 A 3.878 3.878 0 0 1 113.166 28.289 Q 112.837 28.365 112.531 28.365 A 2.339 2.339 0 0 1 112.146 28.333 Q 111.344 27.918 111.072 27.59 A 0.632 0.632 0 0 1 110.946 27.373 A 11.467 11.467 0 0 0 111.582 27.307 Q 112.686 27.165 114.586 26.773 Q 115.546 26.573 116.266 26.373 A 8.245 8.245 0 0 0 116.766 26.217 Z M 187.206 26.217 A 9.834 9.834 0 0 0 188.186 25.813 A 14.299 14.299 0 0 0 189.055 25.334 Q 189.736 24.925 190.276 24.484 A 6.907 6.907 0 0 0 191.346 23.413 Q 192.386 22.053 193.026 18.773 A 16.223 16.223 0 0 0 193.034 18.714 Q 193.28 16.947 193.049 15.736 A 4.274 4.274 0 0 0 192.786 14.853 Q 191.586 12.213 188.466 12.133 A 13.721 13.721 0 0 0 188.09 12.128 A 13.018 13.018 0 0 0 182.866 13.213 Q 180.546 14.213 178.666 16.453 Q 177.417 17.933 176.556 19.306 A 15.821 15.821 0 0 0 175.506 21.253 Q 173.306 26.053 174.346 29.653 A 6.69 6.69 0 0 0 174.406 29.848 Q 174.879 31.289 175.916 32.2 A 5.67 5.67 0 0 0 177.866 33.293 A 5.935 5.935 0 0 0 178.79 33.612 Q 180.231 33.988 182.368 33.91 A 23.835 23.835 0 0 0 183.346 33.853 Q 184.946 33.733 186.546 33.413 A 19.203 19.203 0 0 0 186.646 33.393 Q 188.184 33.077 189.346 32.573 A 7.052 7.052 0 0 0 189.831 32.342 Q 190.211 32.141 190.513 31.915 A 3.391 3.391 0 0 0 191.126 31.333 Q 191.706 30.613 191.326 29.813 A 9.704 9.704 0 0 0 191.192 29.542 Q 190.985 29.139 190.842 28.978 A 0.438 0.438 0 0 0 190.746 28.893 A 1.149 1.149 0 0 0 190.658 28.845 Q 190.59 28.813 190.528 28.795 A 0.517 0.517 0 0 0 190.386 28.773 A 0.485 0.485 0 0 1 190.288 28.763 Q 190.225 28.75 190.156 28.72 A 1.072 1.072 0 0 1 190.026 28.653 A 0.387 0.387 0 0 1 189.95 28.59 Q 189.81 28.446 189.622 28.062 A 7.42 7.42 0 0 1 189.506 27.813 A 3.087 3.087 0 0 0 189.017 27.45 Q 188.48 27.131 187.901 27.131 A 2.127 2.127 0 0 0 187.806 27.133 A 6.463 6.463 0 0 0 187.297 27.176 A 7.354 7.354 0 0 0 185.966 27.473 Q 185.026 27.773 184.166 28.113 A 3.878 3.878 0 0 1 183.606 28.289 Q 183.277 28.365 182.971 28.365 A 2.339 2.339 0 0 1 182.586 28.333 Q 181.784 27.918 181.512 27.59 A 0.632 0.632 0 0 1 181.386 27.373 A 11.467 11.467 0 0 0 182.022 27.307 Q 183.126 27.165 185.026 26.773 Q 185.986 26.573 186.706 26.373 A 8.245 8.245 0 0 0 187.206 26.217 Z M 26.225 14.263 A 2.108 2.108 0 0 0 25.026 14.653 A 5.421 5.421 0 0 0 24.864 14.768 Q 23.633 15.674 22.55 17.511 A 18.996 18.996 0 0 0 21.606 19.353 A 21.483 21.483 0 0 0 20.922 21.06 A 17.833 17.833 0 0 0 19.906 26.133 A 16.132 16.132 0 0 0 19.893 26.374 Q 19.718 29.991 21.306 31.733 Q 22.706 33.333 24.866 33.773 Q 25.866 33.973 26.926 33.993 A 35.556 35.556 0 0 0 27.015 33.995 Q 28.039 34.012 29.266 33.973 Q 29.986 33.951 30.807 33.833 A 20.228 20.228 0 0 0 32.146 33.593 Q 33.746 33.253 35.186 31.973 A 13.728 13.728 0 0 0 37.956 28.638 A 16.947 16.947 0 0 0 39.666 24.613 A 18.032 18.032 0 0 0 40.068 23.008 Q 40.365 21.524 40.365 20.127 A 12.084 12.084 0 0 0 39.946 16.933 A 4.998 4.998 0 0 0 38.663 14.424 A 6.173 6.173 0 0 0 37.106 13.253 A 6.908 6.908 0 0 0 36.019 12.77 A 8.712 8.712 0 0 0 34.606 12.413 A 12.669 12.669 0 0 0 34.553 12.404 Q 33.167 12.176 32.186 12.333 Q 31.186 12.493 30.626 12.533 A 4.715 4.715 0 0 0 30.044 12.59 Q 28.342 12.866 27.586 14.413 Q 27.346 14.413 27.106 14.373 Q 26.637 14.252 26.225 14.263 Z M 144.185 14.263 A 2.108 2.108 0 0 0 142.986 14.653 A 5.421 5.421 0 0 0 142.824 14.768 Q 141.593 15.674 140.51 17.511 A 18.996 18.996 0 0 0 139.566 19.353 A 21.483 21.483 0 0 0 138.882 21.06 A 17.833 17.833 0 0 0 137.866 26.133 A 16.132 16.132 0 0 0 137.853 26.374 Q 137.678 29.991 139.266 31.733 Q 140.666 33.333 142.826 33.773 Q 143.826 33.973 144.886 33.993 A 35.556 35.556 0 0 0 144.975 33.995 Q 145.999 34.012 147.226 33.973 Q 147.946 33.951 148.767 33.833 A 20.228 20.228 0 0 0 150.106 33.593 Q 151.706 33.253 153.146 31.973 A 13.728 13.728 0 0 0 155.916 28.638 A 16.947 16.947 0 0 0 157.626 24.613 A 18.032 18.032 0 0 0 158.028 23.008 Q 158.325 21.524 158.325 20.127 A 12.084 12.084 0 0 0 157.906 16.933 A 4.998 4.998 0 0 0 156.623 14.424 A 6.173 6.173 0 0 0 155.066 13.253 A 6.908 6.908 0 0 0 153.979 12.77 A 8.712 8.712 0 0 0 152.566 12.413 A 12.669 12.669 0 0 0 152.513 12.404 Q 151.127 12.176 150.146 12.333 Q 149.146 12.493 148.586 12.533 A 4.715 4.715 0 0 0 148.004 12.59 Q 146.302 12.866 145.546 14.413 Q 145.306 14.413 145.066 14.373 Q 144.597 14.252 144.185 14.263 Z M 161.146 20.093 L 162.506 15.173 A 5.8 5.8 0 0 1 163.055 14.092 A 4.148 4.148 0 0 1 164.086 12.993 Q 164.953 12.365 165.762 12.14 A 3.586 3.586 0 0 1 166.046 12.073 A 3.207 3.207 0 0 1 166.364 12.028 Q 166.789 11.99 167.14 12.086 A 1.664 1.664 0 0 1 167.606 12.293 Q 168.226 12.693 168.026 13.533 Q 168.786 12.773 170.226 12.133 Q 171.666 11.493 172.506 11.253 Q 173.346 11.013 173.946 11.013 A 1.837 1.837 0 0 1 174.302 11.067 Q 175.175 11.297 174.713 12.437 A 3.407 3.407 0 0 1 174.706 12.453 A 1.223 1.223 0 0 1 175.543 13.022 A 1.959 1.959 0 0 1 175.706 13.333 A 2.349 2.349 0 0 1 175.889 14.254 Q 175.889 14.619 175.786 15.013 Q 175.562 15.872 174.816 16.695 A 6.212 6.212 0 0 1 174.706 16.813 A 3.948 3.948 0 0 1 173.392 17.711 A 5.383 5.383 0 0 1 172.446 18.013 Q 171.026 18.333 170.086 19.473 A 9.916 9.916 0 0 0 169.175 20.793 Q 168.775 21.48 168.426 22.293 A 22.585 22.585 0 0 0 167.699 24.299 Q 167.035 26.412 166.454 29.35 A 79.013 79.013 0 0 0 166.266 30.333 Q 165.985 31.982 164.197 33.169 A 8.348 8.348 0 0 1 163.666 33.493 A 7.647 7.647 0 0 1 162.55 34.026 Q 161.03 34.596 159.706 34.213 A 2.764 2.764 0 0 1 158.773 33.776 Q 157.778 33.032 157.893 31.372 A 5.528 5.528 0 0 1 157.906 31.213 A 9.79 9.79 0 0 1 158.042 30.027 Q 158.252 28.8 158.769 27.176 A 36.136 36.136 0 0 1 158.946 26.633 Q 159.681 24.444 160.158 23.075 A 118.948 118.948 0 0 1 160.426 22.313 A 59.511 59.511 0 0 0 160.666 21.627 Q 160.996 20.663 161.146 20.093 Z M 133.364 4.272 A 6.284 6.284 0 0 0 132.546 5.493 A 3.032 3.032 0 0 0 132.476 5.71 Q 132.047 7.226 133.466 8.533 Q 134.826 9.813 136.746 9.813 A 4.609 4.609 0 0 0 137.344 9.776 Q 138.133 9.673 138.716 9.284 A 3.077 3.077 0 0 0 139.746 8.093 Q 140.666 6.333 139.386 4.573 A 4.908 4.908 0 0 0 139.039 4.144 Q 137.937 2.93 136.322 2.93 A 4.41 4.41 0 0 0 136.146 2.933 A 3.649 3.649 0 0 0 133.364 4.272 Z M 30.186 22.973 A 4.339 4.339 0 0 0 30.383 22.978 Q 31.177 22.978 32.066 22.693 Q 32.189 23.656 32.12 24.526 A 6.747 6.747 0 0 1 31.626 26.613 Q 31.266 27.533 30.606 28.213 A 4.131 4.131 0 0 1 30.097 28.661 A 3.105 3.105 0 0 1 29.186 29.133 A 2.497 2.497 0 0 1 28.896 29.205 Q 28.148 29.346 26.826 29.213 Q 26.544 28.547 26.623 27.889 A 2.654 2.654 0 0 1 26.826 27.153 A 10.143 10.143 0 0 1 26.882 27.026 A 10.935 10.935 0 0 1 27.946 25.173 Q 27.946 25.245 28.395 24.916 A 12.866 12.866 0 0 0 28.506 24.833 A 4.544 4.544 0 0 0 28.88 24.521 A 3.608 3.608 0 0 0 29.406 23.913 Q 29.746 23.413 30.186 22.973 Z M 148.146 22.973 A 4.339 4.339 0 0 0 148.343 22.978 Q 149.137 22.978 150.026 22.693 Q 150.149 23.656 150.08 24.526 A 6.747 6.747 0 0 1 149.586 26.613 Q 149.226 27.533 148.566 28.213 A 4.131 4.131 0 0 1 148.057 28.661 A 3.105 3.105 0 0 1 147.146 29.133 A 2.497 2.497 0 0 1 146.856 29.205 Q 146.108 29.346 144.786 29.213 Q 144.504 28.547 144.583 27.889 A 2.654 2.654 0 0 1 144.786 27.153 A 10.143 10.143 0 0 1 144.842 27.026 A 10.935 10.935 0 0 1 145.906 25.173 Q 145.906 25.245 146.355 24.916 A 12.866 12.866 0 0 0 146.466 24.833 A 4.544 4.544 0 0 0 146.84 24.521 A 3.608 3.608 0 0 0 147.366 23.913 Q 147.706 23.413 148.146 22.973 Z M 239.026 21.093 A 7.361 7.361 0 0 0 235.403 25.037 A 9.792 9.792 0 0 0 235.186 25.613 A 7.484 7.484 0 0 0 234.829 26.885 A 6.431 6.431 0 0 0 234.746 27.493 Q 234.906 27.773 235.066 27.853 A 1.779 1.779 0 0 0 235.427 28.054 Q 236.486 28.483 237.546 27.013 A 10.73 10.73 0 0 0 238.349 25.681 Q 238.801 24.781 238.986 23.913 Q 239.306 22.413 239.306 21.773 A 2.223 2.223 0 0 0 239.296 21.554 Q 239.275 21.339 239.207 21.224 A 0.246 0.246 0 0 0 239.026 21.093 Z M 115.426 19.493 A 2.777 2.777 0 0 0 114.975 19.436 Q 113.523 19.377 112.547 21.012 A 7.138 7.138 0 0 0 112.106 21.893 Q 111.746 22.653 111.546 23.493 Q 112.86 23.648 114.323 22.085 A 8.9 8.9 0 0 0 114.426 21.973 A 5.884 5.884 0 0 0 114.942 21.245 A 4.65 4.65 0 0 0 115.266 20.593 Q 115.513 19.975 115.449 19.591 A 0.804 0.804 0 0 0 115.426 19.493 Z M 185.866 19.493 A 2.777 2.777 0 0 0 185.415 19.436 Q 183.963 19.377 182.987 21.012 A 7.138 7.138 0 0 0 182.546 21.893 Q 182.186 22.653 181.986 23.493 Q 183.3 23.648 184.763 22.085 A 8.9 8.9 0 0 0 184.866 21.973 A 5.884 5.884 0 0 0 185.382 21.245 A 4.65 4.65 0 0 0 185.706 20.593 Q 185.953 19.975 185.889 19.591 A 0.804 0.804 0 0 0 185.866 19.493 Z M 92.546 24.213 L 92.546 24.293 Q 92.623 24.14 92.553 24.207 A 0.383 0.383 0 0 0 92.546 24.213 Z" vector-effect="non-scaling-stroke"/></g></svg>