<?xml version="1.0" standalone="no"?>
<!DOCTYPE svg PUBLIC "-//W3C//DTD SVG 20010904//EN"
 "http://www.w3.org/TR/2001/REC-SVG-20010904/DTD/svg10.dtd">
<svg version="1.0" xmlns="http://www.w3.org/2000/svg"
 width="518.000000pt" height="500.000000pt" viewBox="0 0 518.000000 500.000000"
 preserveAspectRatio="xMidYMid meet">

<g transform="translate(0.000000,500.000000) scale(0.100000,-0.100000)"
fill="#000000" stroke="none">
<path d="M674 3888 c-4 -6 -3 -8 3 -5 6 4 27 -2 47 -13 23 -11 33 -13 26 -5
-17 21 -68 36 -76 23z"/>
<path d="M4092 3874 c-12 -8 -27 -25 -33 -37 -8 -17 -6 -16 13 5 12 15 34 32
48 37 14 5 18 10 10 10 -9 1 -26 -6 -38 -15z"/>
<path d="M4156 3877 c3 -10 9 -15 12 -12 3 3 0 11 -7 18 -10 9 -11 8 -5 -6z"/>
<path d="M647 3818 c-9 -29 -15 -54 -13 -56 2 -2 12 20 21 48 9 28 15 53 13
55 -2 3 -12 -19 -21 -47z"/>
<path d="M1037 3775 c-42 -36 -82 -75 -88 -87 -7 -13 10 0 37 28 27 27 69 67
94 87 25 20 42 37 39 37 -3 0 -40 -29 -82 -65z"/>
<path d="M2789 3786 c-35 -29 -73 -64 -84 -77 -11 -13 6 0 38 28 97 87 110 95
135 77 13 -9 22 -26 22 -42 1 -15 12 -47 25 -72 29 -54 33 -46 5 10 -11 22
-20 50 -20 63 0 22 -17 44 -46 60 -6 4 -40 -18 -75 -47z"/>
<path d="M1147 3810 c14 -16 20 -33 17 -47 -3 -11 -2 -23 3 -26 21 -13 6 54
-17 75 l-24 23 21 -25z"/>
<path d="M1458 3823 c35 -3 45 -9 57 -34 18 -34 15 -36 -50 -42 l-40 -4 46 -1
c61 -3 75 13 49 56 -18 29 -24 32 -62 30 l-43 -1 43 -4z"/>
<path d="M1772 3803 c-23 -33 -72 -129 -72 -140 0 -4 20 28 43 72 24 44 50 81
58 83 8 1 27 -8 42 -22 15 -14 27 -21 27 -16 0 10 -54 50 -68 50 -6 0 -19 -12
-30 -27z"/>
<path d="M2340 3821 c0 -5 9 -13 20 -16 26 -8 25 -20 -2 -39 -12 -9 -17 -16
-11 -16 6 0 19 7 27 16 12 11 16 12 16 2 0 -7 7 -2 16 10 8 12 27 23 42 23 23
2 24 2 5 6 -12 2 -31 0 -41 -6 -15 -8 -24 -6 -40 9 -23 22 -32 25 -32 11z"/>
<path d="M3090 3790 c-20 -22 -44 -40 -53 -40 -10 0 -17 -8 -16 -17 0 -11 3
-13 6 -5 2 6 9 10 13 7 5 -3 23 13 41 35 45 56 64 59 106 18 24 -23 32 -26 25
-12 -12 23 -54 54 -73 54 -7 0 -29 -18 -49 -40z"/>
<path d="M3510 3822 c0 -4 9 -13 20 -20 11 -7 20 -9 20 -4 0 4 -9 13 -20 20
-11 7 -20 9 -20 4z"/>
<path d="M3652 3806 c-86 -28 -112 -49 -112 -86 0 -37 17 -49 84 -60 70 -11
81 -17 65 -36 -18 -22 -49 -37 -89 -44 -32 -5 -35 -8 -35 -40 0 -33 2 -35 35
-38 43 -4 116 33 139 68 14 23 12 22 -14 -4 -36 -35 -83 -56 -125 -56 -27 0
-30 3 -30 30 0 25 4 30 25 30 43 0 113 44 115 72 0 9 -58 28 -86 28 -44 0 -74
21 -74 51 0 35 22 50 114 78 94 29 131 28 152 -5 21 -31 12 -41 -41 -47 -39
-4 -39 -4 8 -5 57 -2 70 16 40 56 -27 36 -77 38 -171 8z"/>
<path d="M4147 3804 c-28 -19 -46 -42 -68 -92 -36 -79 -46 -122 -30 -122 6 0
14 12 17 28 15 75 93 107 134 55 12 -16 18 -21 14 -13 -25 51 -54 61 -105 34
-30 -15 -31 -15 -24 8 15 48 36 78 65 93 16 8 32 19 35 25 8 14 6 12 -38 -16z"/>
<path d="M1388 3813 c7 -3 16 -2 19 1 4 3 -2 6 -13 5 -11 0 -14 -3 -6 -6z"/>
<path d="M2005 3801 c-8 -28 -96 -93 -117 -87 -10 2 -18 0 -18 -5 0 -32 115
35 140 81 15 27 35 25 59 -6 12 -15 21 -22 21 -17 0 15 -45 53 -62 53 -9 0
-19 -9 -23 -19z"/>
<path d="M2240 3810 c-17 -6 -9 -7 25 -3 28 3 52 7 54 9 8 7 -54 2 -79 -6z"/>
<path d="M2582 3813 c78 -3 109 -8 118 -18 22 -27 4 -45 -45 -45 -40 0 -45 -2
-44 -22 1 -17 2 -19 6 -5 3 12 14 17 38 17 45 0 65 9 65 30 0 40 -31 50 -141
48 l-104 -2 107 -3z"/>
<path d="M3443 3813 c9 -2 25 -2 35 0 9 3 1 5 -18 5 -19 0 -27 -2 -17 -5z"/>
<path d="M731 3779 c-6 -18 -9 -34 -7 -36 2 -2 9 10 15 28 6 18 9 34 7 36 -2
2 -9 -10 -15 -28z"/>
<path d="M1293 3785 c-33 -15 -53 -30 -53 -41 0 -14 3 -13 18 4 9 12 40 30 67
41 28 11 43 20 35 20 -8 0 -39 -11 -67 -24z"/>
<path d="M3365 3800 c-25 -11 1 -11 35 0 20 6 21 8 5 8 -11 0 -29 -3 -40 -8z"/>
<path d="M4015 3753 c-14 -31 -23 -58 -20 -61 3 -3 5 -3 5 0 0 3 11 31 25 62
14 31 22 56 20 56 -3 0 -17 -25 -30 -57z"/>
<path d="M2188 3793 c7 -3 16 -2 19 1 4 3 -2 6 -13 5 -11 0 -14 -3 -6 -6z"/>
<path d="M2140 3780 c-8 -5 -10 -10 -5 -10 6 0 17 5 25 10 8 5 11 10 5 10 -5
0 -17 -5 -25 -10z"/>
<path d="M3300 3775 c-7 -9 -10 -18 -6 -22 3 -3 6 -1 6 6 0 6 10 16 23 21 15
6 17 9 6 9 -9 1 -22 -6 -29 -14z"/>
<path d="M3536 3771 c-3 -5 -40 -17 -81 -26 -85 -20 -104 -45 -33 -45 25 0 50
-7 62 -17 21 -18 21 -18 2 5 -14 16 -30 22 -60 23 -38 0 -39 1 -16 10 14 6 46
15 72 20 26 6 52 17 59 25 6 8 9 14 6 14 -3 0 -8 -4 -11 -9z"/>
<path d="M2134 3713 c1 -33 4 -46 9 -37 5 9 4 32 -1 52 -9 37 -9 36 -8 -15z"/>
<path d="M1365 3741 c-18 -7 -17 -9 11 -24 18 -9 41 -31 53 -49 11 -18 21 -28
21 -21 0 6 -16 28 -35 49 -19 20 -35 38 -35 40 0 1 10 5 23 7 18 4 19 4 2 5
-11 0 -29 -3 -40 -7z"/>
<path d="M2080 3730 c0 -11 2 -20 4 -20 2 0 6 9 9 20 3 11 1 20 -4 20 -5 0 -9
-9 -9 -20z"/>
<path d="M2275 3740 c-25 -11 1 -11 35 0 20 6 21 8 5 8 -11 0 -29 -3 -40 -8z"/>
<path d="M2412 3736 c14 -16 21 -17 49 -7 47 16 77 14 82 -6 4 -14 5 -12 6 5
1 18 -4 22 -28 22 -15 0 -42 -5 -60 -11 -24 -9 -35 -8 -49 2 -16 12 -16 12 0
-5z"/>
<path d="M3227 3714 c5 -36 2 -43 -22 -62 -15 -12 -23 -22 -18 -22 5 0 19 10
31 23 23 24 28 62 13 86 -6 10 -8 1 -4 -25z"/>
<path d="M3678 3743 c-26 -7 -22 -19 12 -33 17 -7 30 -18 30 -25 0 -7 7 -18
15 -25 8 -7 16 -24 16 -39 1 -21 2 -22 6 -5 5 27 -32 91 -59 100 -22 7 -14 19
17 27 l20 5 -20 0 c-11 0 -28 -2 -37 -5z"/>
<path d="M3112 3717 c-23 -24 -29 -47 -12 -47 5 0 7 6 4 13 -6 17 31 51 45 42
17 -10 13 -21 -11 -33 -13 -6 -18 -11 -12 -11 5 -1 19 5 29 13 16 12 17 16 6
30 -18 21 -23 20 -49 -7z"/>
<path d="M3305 3717 c3 -17 -2 -42 -16 -68 -11 -23 -19 -43 -16 -45 2 -2 14
17 26 44 18 38 20 52 11 72 l-10 25 5 -28z"/>
<path d="M2217 3723 c-16 -15 -4 -23 36 -23 31 0 49 -6 61 -19 17 -19 17 -20
-13 -35 -16 -9 -48 -16 -70 -16 -31 0 -43 -5 -52 -21 -13 -25 0 -43 27 -36 15
4 14 5 -5 6 -17 1 -21 5 -17 17 3 9 6 18 6 20 0 2 19 4 43 4 37 0 107 29 107
45 0 3 -9 14 -20 25 -13 13 -34 20 -62 21 -33 0 -38 2 -23 9 15 6 16 9 4 9 -9
1 -19 -2 -22 -6z"/>
<path d="M601 3689 c-6 -18 -11 -37 -10 -43 0 -6 7 7 15 28 8 22 12 41 10 43
-2 2 -9 -10 -15 -28z"/>
<path d="M1073 3705 c-32 -14 -93 -87 -93 -111 0 -14 47 -31 57 -20 4 3 -3 6
-15 6 -11 0 -24 5 -27 10 -8 12 18 56 49 84 20 17 66 40 71 34 8 -10 35 -69
35 -77 0 -13 -35 -32 -75 -42 -27 -6 -28 -7 -5 -8 28 -1 90 33 90 49 0 16 -39
90 -48 90 -4 -1 -21 -7 -39 -15z"/>
<path d="M1181 3715 c0 -5 6 -21 14 -35 8 -14 14 -20 14 -15 0 6 -6 21 -14 35
-8 14 -14 21 -14 15z"/>
<path d="M2813 3705 c-32 -13 -93 -87 -93 -110 0 -14 23 -26 48 -24 10 1 7 4
-7 8 -14 4 -26 11 -28 17 -6 19 55 91 87 102 29 11 32 9 50 -21 26 -43 25 -54
-7 -71 -16 -8 -23 -15 -17 -16 7 0 22 9 35 19 l24 19 -22 46 c-25 51 -25 51
-70 31z"/>
<path d="M3011 3694 c0 -11 3 -14 6 -6 3 7 2 16 -1 19 -3 4 -6 -2 -5 -13z"/>
<path d="M696 3685 c-9 -26 -7 -32 5 -12 6 10 9 21 6 23 -2 3 -7 -2 -11 -11z"/>
<path d="M1240 3690 c0 -11 56 -30 87 -30 28 0 63 -17 63 -30 0 -13 -74 -50
-98 -50 -11 0 -26 -7 -33 -17 -13 -14 -12 -15 6 -5 11 6 31 13 45 16 36 8 90
43 90 59 0 17 -42 37 -78 37 -15 0 -39 7 -54 14 -16 8 -28 11 -28 6z"/>
<path d="M2531 3684 c0 -11 3 -14 6 -6 3 7 2 16 -1 19 -3 4 -6 -2 -5 -13z"/>
<path d="M2601 3684 c0 -11 3 -14 6 -6 3 7 2 16 -1 19 -3 4 -6 -2 -5 -13z"/>
<path d="M2670 3659 c-7 -11 -10 -23 -7 -25 2 -2 9 7 15 21 14 30 7 33 -8 4z"/>
<path d="M3976 3658 c-3 -13 -5 -34 -5 -48 1 -15 5 -7 10 19 9 47 6 68 -5 29z"/>
<path d="M1949 3644 c-20 -14 -52 -27 -72 -31 -30 -4 -40 -1 -63 22 -21 21
-29 24 -35 13 -5 -7 -8 -20 -8 -28 1 -11 3 -10 6 3 6 22 8 21 43 -4 35 -26 76
-21 132 16 l37 24 3 -22 c3 -20 4 -19 9 6 8 34 -4 34 -52 1z"/>
<path d="M2072 3650 c0 -14 2 -19 5 -12 2 6 2 18 0 25 -3 6 -5 1 -5 -13z"/>
<path d="M3001 3654 c0 -11 3 -14 6 -6 3 7 2 16 -1 19 -3 4 -6 -2 -5 -13z"/>
<path d="M2515 3637 c-4 -14 -16 -33 -26 -43 -17 -15 -26 -16 -62 -7 -28 8
-47 8 -60 1 -13 -6 -23 -6 -32 2 -8 7 -20 10 -27 7 -9 -4 -8 -6 3 -6 9 -1 22
-8 29 -16 17 -20 -1 -42 -44 -54 -20 -6 -24 -9 -11 -10 11 0 32 5 46 13 22 11
29 11 44 0 10 -8 33 -13 49 -13 20 1 24 3 11 6 -11 2 -30 6 -42 9 -16 3 -23
12 -23 29 0 32 11 37 49 24 46 -16 76 -5 96 37 9 19 14 38 11 41 -3 3 -8 -6
-11 -20z"/>
<path d="M2582 3623 c-15 -48 -8 -55 8 -8 7 20 10 38 8 41 -3 2 -10 -13 -16
-33z"/>
<path d="M3470 3645 c-14 -8 -20 -14 -14 -15 5 0 19 7 30 15 24 18 16 19 -16
0z"/>
<path d="M681 3634 c0 -11 3 -14 6 -6 3 7 2 16 -1 19 -3 4 -6 -2 -5 -13z"/>
<path d="M1216 3627 c9 -40 -17 -72 -78 -97 -29 -11 -39 -18 -23 -15 76 16
129 73 107 116 -11 23 -11 23 -6 -4z"/>
<path d="M1681 3621 c-7 -16 -11 -42 -8 -57 4 -28 4 -28 6 4 0 18 6 42 12 54
6 11 9 22 6 24 -2 3 -10 -9 -16 -25z"/>
<path d="M2117 3643 c-4 -3 -7 -11 -7 -17 0 -6 5 -5 12 2 6 6 9 14 7 17 -3 3
-9 2 -12 -2z"/>
<path d="M2951 3634 c0 -11 3 -14 6 -6 3 7 2 16 -1 19 -3 4 -6 -2 -5 -13z"/>
<path d="M581 3608 c-2 -41 29 -98 57 -105 14 -3 47 -1 74 6 27 6 75 11 106
11 31 0 63 4 69 8 17 10 -110 4 -164 -8 -89 -21 -117 -4 -134 78 -5 31 -7 32
-8 10z"/>
<path d="M2992 3605 c0 -16 2 -22 5 -12 2 9 2 23 0 30 -3 6 -5 -1 -5 -18z"/>
<path d="M3133 3620 c-13 -5 -23 -12 -23 -14 0 -8 57 -36 72 -36 7 1 -3 8 -22
16 l-35 15 25 14 c28 16 17 19 -17 5z"/>
<path d="M3350 3610 c-13 -24 -5 -40 18 -39 15 1 15 2 0 6 -38 10 -13 40 37
46 l40 4 -42 1 c-33 2 -45 -2 -53 -18z"/>
<path d="M705 3610 c-18 -5 -1 -6 42 -3 81 6 130 -8 143 -41 l9 -21 0 21 c2
42 -106 67 -194 44z"/>
<path d="M2652 3592 c-2 -25 5 -41 27 -63 26 -25 36 -29 83 -28 l53 2 -58 6
c-65 7 -93 31 -100 86 l-4 30 -1 -33z"/>
<path d="M1983 3575 c0 -22 2 -30 4 -17 2 12 2 30 0 40 -3 9 -5 -1 -4 -23z"/>
<path d="M2102 3580 c0 -19 2 -27 5 -17 2 9 2 25 0 35 -3 9 -5 1 -5 -18z"/>
<path d="M1755 3589 c-4 -6 -5 -12 -2 -15 2 -3 7 2 10 11 7 17 1 20 -8 4z"/>
<path d="M2951 3588 c-1 -9 -16 -25 -33 -37 -18 -11 -28 -21 -21 -21 21 0 66
46 60 61 -4 11 -6 10 -6 -3z"/>
<path d="M3430 3589 c-29 -6 -26 -7 16 -3 39 3 55 0 64 -11 28 -34 -42 -64
-147 -65 -59 0 -83 16 -84 58 0 20 -4 16 -12 -18 -11 -40 -16 -46 -47 -51
l-35 -6 32 -2 c21 -1 36 5 45 18 12 17 16 17 33 5 38 -28 181 -12 218 25 20
20 20 21 2 41 -19 21 -29 22 -85 9z"/>
<path d="M4201 3581 c-6 -10 -30 -28 -53 -40 -24 -11 -37 -21 -29 -21 21 0 80
39 91 61 6 10 8 19 6 19 -3 0 -10 -8 -15 -19z"/>
<path d="M2243 3583 c9 -2 25 -2 35 0 9 3 1 5 -18 5 -19 0 -27 -2 -17 -5z"/>
<path d="M2798 3583 c6 -2 18 -2 25 0 6 3 1 5 -13 5 -14 0 -19 -2 -12 -5z"/>
<path d="M1419 3564 c-19 -23 -85 -54 -115 -54 -15 0 -33 8 -41 18 -13 15 -13
15 -3 -5 14 -29 56 -30 108 -4 33 17 84 61 70 61 -3 0 -11 -7 -19 -16z"/>
<path d="M920 3566 c0 -16 20 -44 37 -50 13 -5 11 0 -7 21 -14 15 -26 30 -27
32 -2 2 -3 1 -3 -3z"/>
<path d="M2041 3543 c-10 -26 -10 -27 4 -9 8 11 15 23 15 28 0 15 -7 8 -19
-19z"/>
<path d="M2541 3546 c-12 -13 -36 -27 -53 -30 -17 -3 -29 -8 -27 -11 10 -9 77
16 94 35 26 29 13 35 -14 6z"/>
<path d="M2986 3550 c8 -34 27 -52 47 -44 9 3 17 9 17 13 0 3 4 12 9 19 6 11
15 9 42 -6 19 -11 45 -23 59 -26 14 -4 2 4 -26 18 -28 13 -55 29 -59 36 -5 8
-13 1 -26 -19 -24 -39 -35 -39 -54 2 -11 23 -13 25 -9 7z"/>
<path d="M3200 3566 c0 -2 13 -6 29 -8 17 -2 28 -1 25 4 -5 8 -54 12 -54 4z"/>
<path d="M1730 3535 c-10 -25 -34 -34 -43 -15 -3 6 -4 5 -3 -2 1 -7 12 -14 23
-16 15 -2 23 5 31 27 13 37 6 42 -8 6z"/>
<path d="M3971 3553 c-2 -40 80 -69 119 -43 11 7 6 8 -17 4 -45 -9 -78 2 -91
28 -6 13 -11 17 -11 11z"/>
<path d="M2116 3527 c8 -22 38 -29 100 -24 l49 3 -59 2 c-40 1 -66 8 -78 19
-18 16 -18 16 -12 0z"/>
<path d="M1997 3519 c7 -7 15 -10 18 -7 3 3 -2 9 -12 12 -14 6 -15 5 -6 -5z"/>
<path d="M2840 3520 c-21 -7 -21 -8 -5 -9 11 0 27 4 35 9 18 11 5 11 -30 0z"/>
<path d="M1003 3503 c15 -2 39 -2 55 0 15 2 2 4 -28 4 -30 0 -43 -2 -27 -4z"/>
</g>
</svg>
